<?xml version="1.0" standalone="no"?><!DOCTYPE svg PUBLIC "-//W3C//DTD SVG 1.1//EN" "http://www.w3.org/Graphics/SVG/1.1/DTD/svg11.dtd"><svg t="1740278754129" class="icon" viewBox="0 0 1024 1024" version="1.1" xmlns="http://www.w3.org/2000/svg" p-id="1583" xmlns:xlink="http://www.w3.org/1999/xlink" width="256" height="256"><path d="M673.706667 731.733333h-67.413334a73.386667 73.386667 0 0 0-72.96 72.96V938.666667a872.533333 872.533333 0 0 0 213.333334-29.866667v-104.106667a73.386667 73.386667 0 0 0-72.96-72.96z" p-id="1584" fill="#2aa515"></path><path d="M64 404.48V725.333333c0 128 201.813333 203.52 405.333333 213.333334h21.333334v-133.973334a116.053333 116.053333 0 0 1 115.626666-115.626666h67.413334a116.053333 116.053333 0 0 1 115.626666 115.626666V896l21.333334-8.106667c96.853333-38.826667 149.333333-96 149.333333-161.706666V404.48C884.053333 493.653333 714.24 554.666667 512 554.666667S139.946667 493.653333 64 404.48z" p-id="1585" fill="#2aa515"></path><path d="M512 85.333333C294.826667 85.333333 64 160 64 298.666667c0 115.626667 205.226667 213.333333 448 213.333333s448-97.706667 448-213.333333c0-138.666667-230.826667-213.333333-448-213.333334z m170.666667 270.506667c-51.2 0-103.253333-20.053333-103.253334-57.6 0-75.946667 206.506667-75.946667 206.506667 0 0 37.546667-52.053333 57.6-103.253333 57.6z" p-id="1586" fill="#2aa515"></path><path d="M621.653333 298.666667a121.173333 121.173333 0 0 0 61.013334 14.506666A101.546667 101.546667 0 0 0 742.4 298.666667a97.28 97.28 0 0 0-59.733333-15.786667 85.333333 85.333333 0 0 0-61.013334 15.786667z" p-id="1587" fill="#2aa515"></path></svg>