<?xml version="1.0" standalone="no"?><!DOCTYPE svg PUBLIC "-//W3C//DTD SVG 1.1//EN" "http://www.w3.org/Graphics/SVG/1.1/DTD/svg11.dtd"><svg t="1717125887670" class="icon" viewBox="0 0 1024 1024" version="1.1" xmlns="http://www.w3.org/2000/svg" p-id="3530" xmlns:xlink="http://www.w3.org/1999/xlink" width="128" height="128"><path d="M512 0c-282.769408 0-512 229.230592-512 512s229.230592 512 512 512 512-229.230592 512-512S794.770432 0 512 0zM539.734016 636.246016l-110.17216 0c-10.054656 35.835904-42.94144 62.123008-81.989632 62.123008-39.048192 0-71.934976-26.287104-81.989632-62.123008l-49.774592 0 0-68.284416 21.076992 0 0-242.328576 302.848 0L539.732992 636.246016zM808.192 636.246016l-25.863168 0c-10.054656 35.835904-42.94144 62.123008-81.989632 62.123008s-71.934976-26.287104-81.989632-62.123008l-59.913216 0 0-282.88 167.66464 0 82.091008 130.507776L808.192 636.246016z" p-id="3531" fill="#d81e06"></path><path d="M700.340224 613.1968m-42.522624 0a41.526 41.526 0 1 0 85.045248 0 41.526 41.526 0 1 0-85.045248 0Z" p-id="3532" fill="#d81e06"></path><path d="M347.572224 613.1968m-42.522624 0a41.526 41.526 0 1 0 85.045248 0 41.526 41.526 0 1 0-85.045248 0Z" p-id="3533" fill="#d81e06"></path><path d="M599.638016 396.630016 599.638016 483.873792 756.054016 483.873792 701.696 396.630016Z" p-id="3534" fill="#d81e06"></path></svg>