<?xml version="1.0" standalone="no"?><!DOCTYPE svg PUBLIC "-//W3C//DTD SVG 1.1//EN" "http://www.w3.org/Graphics/SVG/1.1/DTD/svg11.dtd"><svg t="1752399732540" class="icon" viewBox="0 0 1024 1024" version="1.1" xmlns="http://www.w3.org/2000/svg" p-id="26473" xmlns:xlink="http://www.w3.org/1999/xlink" width="48" height="48"><path d="M512 1024l-102.4-102.4C211.2 876.8 64 697.6 64 483.2 64 233.6 265.6 32 512 32s448 201.6 448 451.2c0 214.4-147.2 393.6-345.6 438.4L512 1024z m-192-608h121.6c-35.2 102.4-83.2 182.4-153.6 240l25.6 41.6c54.4-41.6 99.2-99.2 134.4-169.6 16 28.8 41.6 54.4 73.6 80-35.2 19.2-76.8 41.6-128 57.6l25.6 44.8c57.6-22.4 105.6-44.8 144-73.6 41.6 25.6 89.6 48 150.4 70.4l25.6-44.8c-54.4-16-99.2-35.2-137.6-57.6 35.2-32 60.8-67.2 73.6-108.8v-38.4h-198.4c6.4-16 9.6-28.8 16-44.8h240v-44.8h-227.2c9.6-32 16-70.4 22.4-108.8L476.8 256c-6.4 38.4-12.8 76.8-22.4 112h-73.6l25.6-89.6-48-6.4L320 416z m160 86.4h144c-12.8 28.8-35.2 54.4-67.2 80-35.2-25.6-60.8-51.2-76.8-80z m128-243.2l-32 32c35.2 28.8 64 54.4 83.2 80l35.2-32c-22.4-32-51.2-57.6-86.4-80z" p-id="26474" fill="#e0620d"></path></svg>