<?xml version="1.0" standalone="no"?><!DOCTYPE svg PUBLIC "-//W3C//DTD SVG 1.1//EN" "http://www.w3.org/Graphics/SVG/1.1/DTD/svg11.dtd"><svg t="1717202883721" class="icon" viewBox="0 0 1024 1024" version="1.1" xmlns="http://www.w3.org/2000/svg" p-id="1267" width="64" height="64" xmlns:xlink="http://www.w3.org/1999/xlink"><path d="M0.005818 238.932558v-204.797673A34.129067 34.129067 0 0 1 34.134885 0.005818h204.797673a34.140703 34.140703 0 1 1 0 68.26977H68.275588v170.65697a34.140703 34.140703 0 1 1-68.26977 0zM989.865115 0.005818h-204.797673a34.140703 34.140703 0 1 0 0 68.26977h170.65697v170.65697a34.140703 34.140703 0 1 0 68.26977 0v-204.797673A34.129067 34.129067 0 0 0 989.865115 0.005818zM238.932558 955.724412H68.275588V785.067442a34.140703 34.140703 0 1 0-68.26977 0v204.797673A34.129067 34.129067 0 0 0 34.134885 1023.994182h204.797673a34.140703 34.140703 0 1 0 0-68.26977z m750.920921-204.797673a34.129067 34.129067 0 0 0-34.129067 34.129067v170.668606H785.067442a34.140703 34.140703 0 1 0 0 68.26977h204.797673A34.129067 34.129067 0 0 0 1023.994182 989.865115v-204.797673a34.129067 34.129067 0 0 0-34.129067-34.140703z" fill="#d81e06" p-id="1268"></path><path d="M785.148896 406.92483a11.636231 11.636231 0 0 0 16.860899 0l61.04367-61.04367a11.636231 11.636231 0 0 0 0-16.860899l-137.30753-137.30753a11.636231 11.636231 0 0 0-16.872536 0l-61.04367 61.043669a11.636231 11.636231 0 0 0 0 16.872536z" fill="#d81e06" p-id="1269"></path><path d="M266.766423 832.845809l134.980284-15.2551a12.020227 12.020227 0 0 0 7.2261-20.084135L289.305803 677.83957a11.868956 11.868956 0 0 0-20.084135 7.2261l-15.266736 134.980284a11.822411 11.822411 0 0 0 12.811491 12.799855z" fill="#d81e06" p-id="1270"></path><path d="M419.026511 783.426734a9.308985 9.308985 0 0 0 14.138021 0l328.455904-351.728367a10.972966 10.972966 0 0 0 0-15.127101l-115.093965-123.250963a9.308985 9.308985 0 0 0-14.138021 0L303.932546 645.060306a10.972966 10.972966 0 0 0 0 15.127101z m-74.716242-138.3897l288.078181-308.488131a9.308985 9.308985 0 0 1 14.138021 0l6.725742 7.202827a10.972966 10.972966 0 0 1 0 15.127101L365.174032 667.366962a9.308985 9.308985 0 0 1-14.138021 0l-6.725742-7.202828a12.613675 12.613675 0 0 1 0.023273-15.1271z" fill="#d81e06" p-id="1271"></path></svg>