<?xml version="1.0" standalone="no"?><!DOCTYPE svg PUBLIC "-//W3C//DTD SVG 1.1//EN" "http://www.w3.org/Graphics/SVG/1.1/DTD/svg11.dtd"><svg t="1717125957429" class="icon" viewBox="0 0 1024 1024" version="1.1" xmlns="http://www.w3.org/2000/svg" p-id="4551" xmlns:xlink="http://www.w3.org/1999/xlink" width="128" height="128"><path d="M330 428.5l179.7 97.9 179.7-97.9-179.7-97.9z" fill="#d81e06" p-id="4552"></path><path d="M512 0C229.2 0 0 229.2 0 512s229.2 512 512 512 512-229.2 512-512S794.8 0 512 0z m194.8 651.7L514.4 760.8c-0.9 0.5-2 0.8-3 0.8-1.1 0-2.1-0.3-3.1-0.8L317.8 650.1c-1.9-1.1-3-3.1-3-5.3V580c0-2.2 1.2-4.2 3.1-5.3 1.9-1.1 4.3-1 6.2 0.2l105.8 65.8 75.4-79.9c1.1-1.2 2.7-1.9 4.3-1.9 1.6 0.2 3.2 0.6 4.4 1.7l82.8 79.9 103.4-65.6c1.9-1.2 4.2-1.3 6.2-0.2 1.9 1.1 3.2 3.1 3.2 5.3l0.3 66.5c-0.1 2.1-1.2 4.2-3.1 5.2z m73.5-143.3c1.2 1.4 1.8 3.2 1.5 5-0.3 1.8-1.4 3.4-3 4.3L596.6 621.3c-0.9 0.5-2 0.8-3 0.8-1.6 0-3.1-0.6-4.3-1.8l-79.5-79.8-76.6 80.3c-1.2 1.2-2.8 1.9-4.4 1.9-1.1 0-2.1-0.3-3.1-0.9L246.2 515.5c-1.5-0.9-2.6-2.4-2.9-4.2-0.3-1.8 0.2-3.6 1.4-4.9l65.5-77.6-66.4-68.1c-1.3-1.4-2-3.3-1.7-5.2 0.3-1.9 1.5-3.5 3.2-4.4l166.8-88c1.9-1 4.1-0.9 6 0.2l91.6 54.4 91.6-54.4c1.8-1.1 4-1.1 5.9-0.2l171.4 88c1.7 0.9 3 2.6 3.2 4.5 0.3 1.9-0.4 3.9-1.8 5.3l-70.7 67.9 71 79.6z" fill="#d81e06" p-id="4553"></path></svg>