<?xml version="1.0" standalone="no"?><!DOCTYPE svg PUBLIC "-//W3C//DTD SVG 1.1//EN" "http://www.w3.org/Graphics/SVG/1.1/DTD/svg11.dtd"><svg t="1718672851893" class="icon" viewBox="0 0 1024 1024" version="1.1" xmlns="http://www.w3.org/2000/svg" p-id="1480" xmlns:xlink="http://www.w3.org/1999/xlink" width="64" height="64"><path d="M624.64 501.1968A133.632 133.632 0 1 0 491.1104 634.88 133.7856 133.7856 0 0 0 624.64 501.1968z" fill="#2aa515" p-id="1481"></path><path d="M892.0064 185.7024L524.8 24.9344a40.96 40.96 0 0 0-32.6656 0l-367.616 160.768a40.96 40.96 0 0 0-24.4224 37.376v370.4832c0 178.5344 151.0912 324.1984 395.3152 405.5552a40.96 40.96 0 0 0 25.6 0C765.8496 917.6064 916.48 772.5568 916.48 593.92V223.0784a40.96 40.96 0 0 0-24.4736-37.376z m-148.736 567.9104a33.536 33.536 0 0 1-47.36 0l-88.7808-88.832a200.704 200.704 0 1 1 47.36-47.3088l88.7808 88.7808a33.536 33.536 0 0 1 0 47.36z" fill="#2aa515" p-id="1482"></path></svg>