<?xml version="1.0" standalone="no"?><!DOCTYPE svg PUBLIC "-//W3C//DTD SVG 1.1//EN" "http://www.w3.org/Graphics/SVG/1.1/DTD/svg11.dtd"><svg t="1717125940027" class="icon" viewBox="0 0 1024 1024" version="1.1" xmlns="http://www.w3.org/2000/svg" p-id="4144" xmlns:xlink="http://www.w3.org/1999/xlink" width="128" height="128"><path d="M511.9872 1023.998976a508.939782 508.939782 0 0 1-199.282801-40.23032 510.590979 510.590979 0 0 1-162.751675-109.73418 509.96378 509.96378 0 0 1-109.695781-162.726075A508.683783 508.683783 0 0 1-0.011776 512a508.696583 508.696583 0 0 1 40.24312-199.295601 510.270979 510.270979 0 0 1 109.69578-162.764475 510.488579 510.488579 0 0 1 162.751675-109.72138A508.773382 508.773382 0 0 1 511.9872 0.001024a508.837382 508.837382 0 0 1 199.295601 40.24312 510.718979 510.718979 0 0 1 162.777275 109.72138 510.309379 510.309379 0 0 1 109.70858 162.764475A508.478983 508.478983 0 0 1 1023.986176 512a508.453383 508.453383 0 0 1-40.243119 199.282801 510.14298 510.14298 0 0 1-109.708581 162.726075 510.846978 510.846978 0 0 1-162.777275 109.734181A509.042182 509.042182 0 0 1 511.9872 1023.998976zM317.05639 272.01328a75.967848 75.967848 0 0 0-77.068646 76.531047v326.898546a76.889446 76.889446 0 0 0 77.068646 76.531047h389.93842a77.503845 77.503845 0 0 0 77.030246-73.343853V350.118724a76.799846 76.799846 0 0 0-77.030246-76.505447H628.351767a17.062366 17.062366 0 0 0-16.025568 15.910368 16.025568 16.025568 0 0 0 16.025568 15.961568h78.643043a43.174314 43.174314 0 0 1 30.719939 12.543975 42.598315 42.598315 0 0 1 12.633574 30.502339v326.898546a42.649515 42.649515 0 0 1-12.633574 30.527939 43.148714 43.148714 0 0 1-30.719939 12.556775H317.04359a43.187114 43.187114 0 0 1-30.719939-12.556775 42.700715 42.700715 0 0 1-12.620774-30.527939V346.95713a42.713515 42.713515 0 0 1 12.620774-30.527939 43.199914 43.199914 0 0 1 30.719939-12.556775h70.566259a17.113566 17.113566 0 0 0 16.102368-15.948768 16.051168 16.051168 0 0 0-16.102368-15.923168z m75.724648 177.574045a16.332767 16.332767 0 0 0-12.799974 8.025584 14.579171 14.579171 0 0 0 0 15.999968l115.19977 180.799638a17.151966 17.151966 0 0 0 13.375973 6.015988 13.900772 13.900772 0 0 0 12.223975-6.015988l115.19977-180.799638a14.438371 14.438371 0 0 0 0-15.999968 14.079972 14.079972 0 0 0-12.799974-8.025584h-56.025488V304.013216a14.259171 14.259171 0 0 0-14.387172-14.438371 14.438371 14.438371 0 0 0-14.387171 14.438371v159.99968a14.425571 14.425571 0 0 0 14.387171 14.425571h44.799911l-88.012624 139.212522-87.987024-139.212522h44.79991a14.259171 14.259171 0 0 0 14.387171-14.425571v-159.99968a14.259171 14.259171 0 0 0-14.387171-14.438371 20.22396 20.22396 0 0 0-17.561565 14.438371v145.574109z" p-id="4145" fill="#d81e06"></path></svg>