<?xml version="1.0" standalone="no"?><!DOCTYPE svg PUBLIC "-//W3C//DTD SVG 1.1//EN" "http://www.w3.org/Graphics/SVG/1.1/DTD/svg11.dtd"><svg t="1718336244351" class="icon" viewBox="0 0 1024 1024" version="1.1" xmlns="http://www.w3.org/2000/svg" p-id="1478" xmlns:xlink="http://www.w3.org/1999/xlink" width="64" height="64"><path d="M68.158687 725.925619l215.08459 17.640567-65.814675 65.814674 3.770148 3.723603a418.905283 418.905283 0 0 0 700.269997-392.002255l90.855902-20.200543a511.622985 511.622985 0 0 1-137.773293 473.130244c-198.002564 197.956019-517.673839 199.957455-718.096745 5.957764l-4.840683-4.794138-65.814675 65.861219-17.640566-215.131135zM150.450302 149.9774c197.956019-197.956019 517.627294-199.957455 718.0502-5.957764l6.050854 5.957764 65.768129-65.814674 17.687112 215.038045-215.131135-17.594022 65.814674-65.814674a418.905283 418.905283 0 0 0-705.157226 387.115026l-90.902446 20.200543A511.622985 511.622985 0 0 1 150.357212 149.9774z" fill="#d81e06" p-id="1479"></path></svg>