<?xml version="1.0" standalone="no"?><!DOCTYPE svg PUBLIC "-//W3C//DTD SVG 1.1//EN" "http://www.w3.org/Graphics/SVG/1.1/DTD/svg11.dtd"><svg t="1717125862178" class="icon" viewBox="0 0 1027 1024" version="1.1" xmlns="http://www.w3.org/2000/svg" p-id="2823" xmlns:xlink="http://www.w3.org/1999/xlink" width="128.375" height="128"><path d="M1027.41504 750.51008a34.54976 34.54976 0 0 1-34.55488 34.55488h-117.43232a34.54976 34.54976 0 0 1-34.55488-34.55488 34.54976 34.54976 0 0 1 34.55488-34.56h117.43232a34.54976 34.54976 0 0 1 34.55488 34.56z" fill="#d81e06" p-id="2824"></path><path d="M512 0C229.22752 0 0 229.22752 0 512s229.22752 512 512 512c106.30144 0 204.9792-32.47616 286.81216-87.93088a37.72928 37.72928 0 0 0 5.7856-3.97312c1.71008-1.19296 4.35712-4.33152 4.35712-4.33152a37.0944 37.0944 0 0 0 9.0112-24.26368 37.30432 37.30432 0 0 0-37.2992-37.30432c-10.12736 0-19.29216 4.0448-26.0096 10.58816-69.47328 46.30528-152.89344 73.344-242.65216 73.344-241.9712 0-438.12864-196.16256-438.12864-438.12864 0-241.9712 196.15744-438.12864 438.12864-438.12864 241.9712 0 438.12864 196.15744 438.12864 438.12864 0 73.66144-18.26304 143.0272-50.37568 203.95008l55.29088 52.80256C998.88128 693.26848 1024 605.568 1024 512 1024 229.22752 794.77248 0 512 0z" fill="#d81e06" p-id="2825"></path><path d="M498.34496 238.93504l-266.24 121.16992 288.42496 122.88 267.95008-122.88zM537.6 503.46496v271.36L800.43008 650.24V395.94496zM223.57504 655.36l271.36 129.70496v-281.6l-262.82496-107.52L223.57504 655.36z m90.44992-172.37504L419.84 527.36v44.37504l-105.81504-46.08v-42.67008z" fill="#d81e06" p-id="2826"></path></svg>