<?xml version="1.0" standalone="no"?><!DOCTYPE svg PUBLIC "-//W3C//DTD SVG 1.1//EN" "http://www.w3.org/Graphics/SVG/1.1/DTD/svg11.dtd"><svg t="1717226803410" class="icon" viewBox="0 0 1024 1024" version="1.1" xmlns="http://www.w3.org/2000/svg" p-id="1328" xmlns:xlink="http://www.w3.org/1999/xlink" width="64" height="64"><path d="M172.8 172.8c140.8-140.8 371.2-140.8 512 0 128 128 140.8 326.4 38.4 467.2l217.6 217.6c25.6 25.6 25.6 64 0 83.2-25.6 25.6-64 25.6-83.2 0L640 723.2c-140.8 102.4-339.2 89.6-467.2-38.4a352 352 0 0 1 0-512zM256 256C160 352 160 505.6 256 601.6s249.6 96 345.6 0 96-249.6 0-345.6S352 160 256 256z" fill="#d81e06" p-id="1329"></path></svg>