<?xml version="1.0" standalone="no"?><!DOCTYPE svg PUBLIC "-//W3C//DTD SVG 1.1//EN" "http://www.w3.org/Graphics/SVG/1.1/DTD/svg11.dtd"><svg t="1717125881233" class="icon" viewBox="0 0 1024 1024" version="1.1" xmlns="http://www.w3.org/2000/svg" p-id="3327" xmlns:xlink="http://www.w3.org/1999/xlink" width="128" height="128"><path d="M512 0c282.752 0 512 229.248 512 512s-229.248 512-512 512S0 794.752 0 512 229.248 0 512 0z m339.925333 341.333333a22.528 22.528 0 0 0-15.914666 6.613334l-140.032 121.088H348.842667L208.810667 347.946667a22.528 22.528 0 0 0-31.872 31.786666l121.898666 139.946667v294.4c0 11.477333 38.528 40.746667 50.005334 40.746667h347.136c11.434667 0 32-29.269333 32-40.746667v-294.4L867.84 379.733333a22.528 22.528 0 0 0-15.914667-38.4zM533.333333 411.904a20.906667 20.906667 0 0 0 15.104-6.485333 22.698667 22.698667 0 0 0 6.229334-15.701334v-168.96a21.76 21.76 0 0 0-21.333334-22.186666 21.76 21.76 0 0 0-21.333333 22.186666v168.96c0 12.245333 9.557333 22.186667 21.333333 22.186667z m-111.36-20.138667c6.144 8.789333 24.661333 25.258667 39.978667 16.213334 15.274667-9.130667 6.101333-28.245333 0-37.034667L374.570667 249.173333c-11.52-18.816-39.850667-6.528-42.453334 0-2.602667 6.528-3.968 19.541333 0 25.216l89.898667 117.333334z m179.029334 36.48c3.925333 3.157333 47.530667-29.184 50.432-33.408L749.226667 257.28c3.925333-5.674667-14.805333-32.170667-21.333334-33.024-6.570667-0.853333-41.088 27.349333-45.056 33.024l-81.834666 128c-1.962667 2.816-1.962667 17.152 0 43.008z" p-id="3328" fill="#d81e06"></path></svg>